<svg width="122" height="39" viewBox="0 0 122 39" fill="none" xmlns="http://www.w3.org/2000/svg">
<line x1="0.491699" y1="37.4758" x2="0.491699" y2="14.8742" stroke="#FFC919"/>
<line y1="-0.5" x2="19.5958" y2="-0.5" transform="matrix(-0.759144 -0.650922 0.724973 -0.688778 30.2479 13.7553)" stroke="#FFC919"/>
<line y1="-0.5" x2="20.6226" y2="-0.5" transform="matrix(0.733368 -0.679832 0.751166 0.660114 0.743774 15.4675)" stroke="#FFC919"/>
<line x1="31.4875" y1="37.752" x2="-5.53131e-05" y2="37.752" stroke="#FFC919"/>
<path d="M21.574 20.2H25.648V21.6H23.114V24.33H25.102V25.73H23.114V30H21.574V20.2ZM28.4865 20.2H30.0265V30H28.4865V20.2ZM33.2799 20.2H35.2119L36.7099 26.066H36.7379V20.2H38.1099V30H36.5279L34.6799 22.846H34.6519V30H33.2799V20.2ZM42.5445 20.2H44.6305L46.2265 30H44.6865L44.4065 28.054V28.082H42.6565L42.3765 30H40.9485L42.5445 20.2ZM44.2245 26.752L43.5385 21.908H43.5105L42.8385 26.752H44.2245ZM49.0736 20.2H51.0056L52.5036 26.066H52.5316V20.2H53.9036V30H52.3216L50.4736 22.846H50.4456V30H49.0736V20.2ZM59.3182 30.14C58.5809 30.14 58.0162 29.93 57.6242 29.51C57.2416 29.09 57.0502 28.4973 57.0502 27.732V22.468C57.0502 21.7027 57.2416 21.11 57.6242 20.69C58.0162 20.27 58.5809 20.06 59.3182 20.06C60.0556 20.06 60.6156 20.27 60.9982 20.69C61.3902 21.11 61.5862 21.7027 61.5862 22.468V23.504H60.1302V22.37C60.1302 21.7633 59.8736 21.46 59.3602 21.46C58.8469 21.46 58.5902 21.7633 58.5902 22.37V27.844C58.5902 28.4413 58.8469 28.74 59.3602 28.74C59.8736 28.74 60.1302 28.4413 60.1302 27.844V26.346H61.5862V27.732C61.5862 28.4973 61.3902 29.09 60.9982 29.51C60.6156 29.93 60.0556 30.14 59.3182 30.14ZM64.6076 20.2H66.1476V30H64.6076V20.2ZM70.591 20.2H72.677L74.273 30H72.733L72.453 28.054V28.082H70.703L70.423 30H68.995L70.591 20.2ZM72.271 26.752L71.585 21.908H71.557L70.885 26.752H72.271ZM77.2568 28.516H78.7408V30H77.2568V28.516ZM83.3222 20.2H85.4082L87.0042 30H85.4642L85.1842 28.054V28.082H83.4342L83.1542 30H81.7262L83.3222 20.2ZM85.0022 26.752L84.3162 21.908H84.2882L83.6162 26.752H85.0022ZM89.8513 20.2H91.3913V30H89.8513V20.2Z" fill="#13522E"/>
</svg>
